<svg xmlns="http://www.w3.org/2000/svg" viewBox="0 0 24 24" fill-rule="evenodd" fill="#9b211b" xmlns:v="https://vecta.io/nano"><path d="M12 4.5c-1.2 0-2.3.2-3.4.5v2.3c0 .3-.2.5-.4.7-.8.4-1.4.8-2 1.4-.3.2-.4.3-.6.3-.3 0-.4-.1-.6-.2L3.2 7.6c-.1-.2-.2-.3-.2-.5s.1-.4.2-.5C5.5 4.3 8.6 3 12 3s6.5 1.3 8.8 3.5c.1.2.2.3.2.6 0 .2-.1.4-.2.5l-1.9 1.9c-.1.1-.3.2-.5.2s-.4-.1-.5-.2c-.6-.5-1.3-1.1-2-1.4-.2-.1-.5-.4-.5-.7V5c-1.1-.3-2.2-.5-3.4-.5h0zm5.4 11.8l-1.6-1.9-2.5 2.3V8.1h-2.6v8.6L8 14.4l-1.6 1.9L12 21z"/></svg>