<svg xmlns="http://www.w3.org/2000/svg" viewBox="0 0 512 512">
  <defs>
    <linearGradient id="bg" x1="0%" y1="0%" x2="100%" y2="100%">
      <stop offset="0%" style="stop-color:#6366f1"/>
      <stop offset="100%" style="stop-color:#4f46e5"/>
    </linearGradient>
  </defs>
  <!-- Background -->
  <rect width="512" height="512" rx="96" fill="url(#bg)"/>
  <!-- Document icon -->
  <rect x="140" y="80" width="232" height="300" rx="16" fill="white"/>
  <rect x="140" y="80" width="232" height="60" rx="16" fill="#c7d2fe"/>
  <!-- Lines on document -->
  <rect x="170" y="170" width="172" height="12" rx="6" fill="#c7d2fe"/>
  <rect x="170" y="200" width="140" height="12" rx="6" fill="#c7d2fe"/>
  <rect x="170" y="230" width="160" height="12" rx="6" fill="#c7d2fe"/>
  <rect x="170" y="260" width="120" height="12" rx="6" fill="#c7d2fe"/>
  <rect x="170" y="290" width="150" height="12" rx="6" fill="#c7d2fe"/>
  <rect x="170" y="320" width="100" height="12" rx="6" fill="#c7d2fe"/>
  <!-- Lock icon -->
  <circle cx="380" cy="400" r="80" fill="#fbbf24"/>
  <rect x="345" y="390" width="70" height="50" rx="8" fill="#1f2937"/>
  <path d="M355 390 V370 A25 25 0 0 1 405 370 V390" stroke="#1f2937" stroke-width="10" fill="none"/>
  <circle cx="380" cy="415" r="8" fill="#fbbf24"/>
</svg>
