<svg viewBox="0 0 280 60" xmlns="http://www.w3.org/2000/svg" width="280" height="60">
  <defs>
    <linearGradient id="inkGradient" x1="0%" y1="0%" x2="100%" y2="0%">
      <stop offset="0%" style="stop-color:#1a365d;stop-opacity:0.9"/>
      <stop offset="50%" style="stop-color:#1e3a5f;stop-opacity:1"/>
      <stop offset="100%" style="stop-color:#2d4a6f;stop-opacity:0.85"/>
    </linearGradient>
  </defs>
  <!-- Handwritten "Sergei Tokmakov" with varying stroke width for pressure effect -->
  <path d="M8 35 Q12 20 18 28 Q22 35 20 40 Q18 45 14 42"
        fill="none" stroke="url(#inkGradient)" stroke-width="2.2" stroke-linecap="round" opacity="0.95"/>
  <path d="M22 32 Q28 25 32 30 Q35 35 30 38 Q25 40 28 35 L38 28"
        fill="none" stroke="url(#inkGradient)" stroke-width="1.8" stroke-linecap="round" opacity="0.9"/>
  <path d="M40 30 Q42 25 45 30 L45 40 M42 35 L48 35"
        fill="none" stroke="url(#inkGradient)" stroke-width="1.6" stroke-linecap="round" opacity="0.92"/>
  <path d="M52 38 Q55 25 58 30 Q62 35 58 40 Q54 42 56 38 Q60 32 65 38"
        fill="none" stroke="url(#inkGradient)" stroke-width="2" stroke-linecap="round" opacity="0.88"/>
  <path d="M68 32 Q72 25 75 32 Q78 38 72 42 Q68 40 72 35"
        fill="none" stroke="url(#inkGradient)" stroke-width="1.7" stroke-linecap="round" opacity="0.93"/>
  <path d="M80 28 L80 42 M80 32 Q85 28 88 35"
        fill="none" stroke="url(#inkGradient)" stroke-width="1.9" stroke-linecap="round" opacity="0.9"/>
  <!-- Space and "Tokmakov" -->
  <path d="M100 25 L115 25 M107 25 L107 42"
        fill="none" stroke="url(#inkGradient)" stroke-width="2.3" stroke-linecap="round" opacity="0.95"/>
  <path d="M120 32 Q125 25 130 32 Q135 40 125 42 Q118 40 125 35"
        fill="none" stroke="url(#inkGradient)" stroke-width="1.8" stroke-linecap="round" opacity="0.87"/>
  <path d="M135 25 L135 42 M135 38 Q142 30 148 42"
        fill="none" stroke="url(#inkGradient)" stroke-width="2" stroke-linecap="round" opacity="0.92"/>
  <path d="M152 28 Q155 22 160 28 Q165 35 158 40 Q152 42 155 35 Q160 30 165 38"
        fill="none" stroke="url(#inkGradient)" stroke-width="1.6" stroke-linecap="round" opacity="0.89"/>
  <path d="M170 25 L170 42 Q175 42 178 38 Q180 32 175 30 Q170 32 175 35"
        fill="none" stroke="url(#inkGradient)" stroke-width="1.9" stroke-linecap="round" opacity="0.91"/>
  <path d="M185 32 Q190 25 195 32 Q200 40 190 42 Q183 40 190 35"
        fill="none" stroke="url(#inkGradient)" stroke-width="1.7" stroke-linecap="round" opacity="0.86"/>
  <path d="M202 28 L210 42 M210 28 L202 42"
        fill="none" stroke="url(#inkGradient)" stroke-width="2.1" stroke-linecap="round" opacity="0.94"/>
  <!-- Flourish underline -->
  <path d="M5 48 Q80 52 150 46 Q220 40 270 50"
        fill="none" stroke="url(#inkGradient)" stroke-width="1.2" stroke-linecap="round" opacity="0.5"/>
</svg>