<svg xmlns="http://www.w3.org/2000/svg" width="24" height="16" viewBox="0 0 24 16">
  <rect width="24" height="16" fill="#0052B4"/>
  <rect width="24" height="1.23" y="0" fill="#FFFFFF"/>
  <rect width="24" height="1.23" y="2.46" fill="#D80027"/>
  <rect width="24" height="1.23" y="4.92" fill="#FFFFFF"/>
  <rect width="24" height="1.23" y="7.38" fill="#D80027"/>
  <rect width="24" height="1.23" y="9.85" fill="#FFFFFF"/>
  <rect width="24" height="1.23" y="12.31" fill="#D80027"/>
  <rect width="24" height="1.23" y="14.77" fill="#FFFFFF"/>
  <rect width="9.6" height="8.62" fill="#0052B4"/>
  <polygon fill="#FFFFFF" points="4.0,0.5 4.5,2.0 6.0,2.0 4.8,3.0 5.2,4.5 4.0,3.5 2.8,4.5 3.2,3.0 2.0,2.0 3.5,2.0"/>
  <polygon fill="#FFFFFF" points="7.5,0.5 8.0,2.0 9.5,2.0 8.3,3.0 8.7,4.5 7.5,3.5 6.3,4.5 6.7,3.0 5.5,2.0 7.0,2.0"/>
  <polygon fill="#FFFFFF" points="4.0,4.0 4.5,5.5 6.0,5.5 4.8,6.5 5.2,8.0 4.0,7.0 2.8,8.0 3.2,6.5 2.0,5.5 3.5,5.5"/>
  <polygon fill="#FFFFFF" points="7.5,4.0 8.0,5.5 9.5,5.5 8.3,6.5 8.7,8.0 7.5,7.0 6.3,8.0 6.7,6.5 5.5,5.5 7.0,5.5"/>
</svg>