<svg xmlns="http://www.w3.org/2000/svg" viewBox="0 0 60 31.7">
  <rect width="60" height="31.7" fill="#b22234"/>
  <path d="M0,3.7h60m0,5.5H0m0,5.5h60m0,5.5H0m0,5.5h60" stroke="#fff" stroke-width="2.4"/>
  <rect width="24" height="17.1" fill="#3c3b6e"/>
  <g fill="#fff">
    <g id="s4">
      <g id="s2">
        <path id="s" d="M3,1.5l.3.9h1l-.8.6.3.9-.8-.6-.8.6.3-.9-.8-.6h1z"/>
        <use href="#s" x="6"/>
      </g>
      <use href="#s2" x="12"/>
    </g>
    <use href="#s4" y="3.4"/>
    <use href="#s4" y="6.8"/>
    <use href="#s4" y="10.2"/>
    <use href="#s4" y="13.6"/>
    <use href="#s" x="3" y="3.4"/>
    <use href="#s" x="9" y="3.4"/>
    <use href="#s" x="15" y="3.4"/>
    <use href="#s" x="21" y="3.4"/>
    <use href="#s" x="3" y="6.8"/>
    <use href="#s" x="9" y="6.8"/>
    <use href="#s" x="15" y="6.8"/>
    <use href="#s" x="21" y="6.8"/>
    <use href="#s" x="3" y="10.2"/>
    <use href="#s" x="9" y="10.2"/>
    <use href="#s" x="15" y="10.2"/>
    <use href="#s" x="21" y="10.2"/>
    <use href="#s" x="3" y="13.6"/>
    <use href="#s" x="9" y="13.6"/>
    <use href="#s" x="15" y="13.6"/>
    <use href="#s" x="21" y="13.6"/>
  </g>
</svg>